# xmcd
#
# Track frame offsets:
# 150
# 15445
# 26655
# 39887
# 52358
# 65114
# 80339
# 94477
# 110706
# 126799
# 145353
#
# Disc length: 2062 seconds
#
#
# Revision: 2
# Processed by: cddbd v1.5.2PL0 Copyright (c) Steve Scherf et al.
# Submitted via: FreeRIP 2.96 
#
DISCID=9d080c0b
DTITLE=Gino and Geno - Ao vivo
DYEAR=2004
DGENRE=Country
TTITLE0=Telefone no ar
TTITLE1=Vou gastar o barao
TTITLE2=Morena de 14 anos
TTITLE3=Xonado sem quantia
TTITLE4=Foi uma noite so
TTITLE5=So voce
TTITLE6=Cara de boi
TTITLE7=Bate a bota no chao
TTITLE8=Pinga na garganta
TTITLE9=Apaixonado por voce
TTITLE10=Encerramento
EXTD=
EXTT0=
EXTT1=
EXTT2=
EXTT3=
EXTT4=
EXTT5=
EXTT6=
EXTT7=
EXTT8=
EXTT9=
EXTT10=
PLAYORDER=
